<svg width="27" height="32" viewBox="0 0 27 32" fill="none" xmlns="http://www.w3.org/2000/svg">
<path d="M26.3893 24.938C25.9226 26.0249 25.3463 27.0614 24.6693 28.0313C23.764 29.3213 23.0233 30.214 22.4527 30.71C21.568 31.5233 20.6193 31.9407 19.604 31.964C18.8753 31.964 17.9967 31.7567 16.9733 31.336C15.9467 30.9173 15.0033 30.7093 14.1407 30.7093C13.236 30.7093 12.266 30.9173 11.228 31.336C10.1887 31.7567 9.35133 31.976 8.71133 31.9973C7.738 32.0393 6.76733 31.6107 5.798 30.71C5.18 30.17 4.40733 29.246 3.48067 27.9367C2.48667 26.538 1.66933 24.9167 1.02933 23.0673C0.344 21.0707 0 19.1367 0 17.2647C0 15.12 0.463333 13.2707 1.39133 11.7207C2.12133 10.4753 3.09133 9.494 4.306 8.77267C5.49766 8.05956 6.85736 7.67581 8.246 7.66067C9.01933 7.66067 10.0333 7.9 11.294 8.37C12.5507 8.84133 13.3573 9.08067 13.7113 9.08067C13.9753 9.08067 14.872 8.80067 16.3913 8.24333C17.8287 7.726 19.0413 7.512 20.0347 7.59667C22.7273 7.814 24.75 8.87533 26.0947 10.7873C23.6873 12.246 22.496 14.2893 22.52 16.9107C22.5413 18.9527 23.282 20.652 24.738 22.0007C25.398 22.6273 26.1347 23.1113 26.954 23.4547C26.7822 23.9552 26.5939 24.4499 26.3893 24.938ZM20.2147 0.640667C20.2147 2.24067 19.63 3.73533 18.4647 5.118C17.058 6.76267 15.3573 7.71267 13.5127 7.56267C13.4879 7.36139 13.4754 7.15879 13.4753 6.956C13.4753 5.42 14.144 3.776 15.332 2.43133C15.9253 1.75067 16.6787 1.18467 17.5933 0.733333C18.5067 0.288667 19.3693 0.0426667 20.1813 0C20.2047 0.214 20.2147 0.428 20.2147 0.64V0.640667Z" fill="white"/>
</svg>
